<?xml version="1.0" encoding="utf-8"?>
<!-- Generator: Adobe Illustrator 26.4.1, SVG Export Plug-In . SVG Version: 6.00 Build 0)  -->
<svg version="1.1" id="pin" xmlns="http://www.w3.org/2000/svg" xmlns:xlink="http://www.w3.org/1999/xlink" x="0px" y="0px"
	 width="40px" height="40px" viewBox="0 0 40 40" enable-background="new 0 0 40 40" xml:space="preserve">
<path fill="#FFFFFF" d="M30.32,23.66l-0.04-1.13l-0.01-0.11c-0.12-0.47-0.51-1.34-1.12-1.7l-2.73-1.25
	c-0.21-0.1-0.99-0.62-1.15-0.78C25,18.43,24.71,18,24.68,17.58l-0.51-9.93c-0.01-0.19,0.08-0.68,0.33-0.85l1.94-0.97
	c0.46-0.29,0.52-0.89,0.39-1.36c-0.15-0.51-0.51-0.83-0.95-0.83h-4.78h-1h-4.92c-0.43,0-0.8,0.32-0.94,0.83
	c-0.14,0.47-0.07,1.07,0.43,1.39l1.85,0.92c0.3,0.2,0.39,0.69,0.39,0.87l-0.51,9.93c-0.03,0.43-0.32,0.86-0.59,1.11
	c-0.16,0.15-0.94,0.68-1.15,0.78l-2.78,1.28c-0.55,0.34-0.95,1.21-1.07,1.68l-0.05,1.24l8.72,0.01c-0.02,1.3-0.05,2.55-0.06,3.29
	c-0.15,3.32,0.48,6.65,0.82,9.96c0.46-3.29,1.2-6.6,1.19-9.93c0.01-0.74,0.04-2.01,0.06-3.32L30.32,23.66z"/>
</svg>
