<svg id="markup_locked_dark" xmlns="http://www.w3.org/2000/svg" width="40" height="40" viewBox="0 0 40 40">
  <rect id="iconBase" width="40" height="40" fill="none"/>
  <rect id="BaseIcon" width="28" height="28" transform="translate(5 4)" fill="none"/>
  <rect id="BaseIcon-2" data-name="BaseIcon" width="28" height="28" transform="translate(5 4)" fill="none"/>
  <path id="Lock" d="M464.286,126.514H472.1v-2.98l-.034-.43-.065-.4-.065-.365-.1-.365-.167-.331-.232-.331-.2-.331-.3-.266-.266-.3-.331-.2-.3-.232-.365-.167-.331-.13-.365-.068-.4-.065h-.761l-.43.065-.331.068-.365.13-.365.167-.3.232-.331.2-.266.3-.3.266-.2.331-.232.331-.167.331-.1.365-.065.365-.068.4-.031.43Zm12.68,1.457v9.24l-.1.263-.133.266-.2.2-.2.2-.266.133-.263.1-.3.034H460.873l-.3-.034-.266-.1-.263-.133-.2-.2-.2-.2-.13-.266-.1-.263-.034-.331v-8.908l.034-.3.1-.266.13-.263.2-.232.2-.2.263-.13.266-.068h.8v-2.98l.034-.727.1-.662.133-.662.229-.631.3-.563.331-.594.4-.563.464-.529.529-.464.563-.4.563-.362.6-.3.563-.2.662-.164.662-.1.693-.031.7.031.662.1.628.164.6.2.6.3.563.362.563.4.495.464.5.529.4.563.331.594.3.563.2.631.164.662.1.662.034.727v2.98h.8l.263.068.266.13.2.2.2.232.133.263.1.266Z" transform="translate(-448.385 -107.581)" fill="#ffffff" fill-rule="evenodd"/>
</svg>
