<?xml version="1.0" encoding="UTF-8"?>
<svg version="1.1" xmlns="http://www.w3.org/2000/svg" width="75" height="75">
<path d="M0 0 C7.59 0 15.18 0 23 0 C23 24.09 23 48.18 23 73 C15.41 73 7.82 73 0 73 C0 48.91 0 24.82 0 0 Z M3 4 C3 4.66 3 5.32 3 6 C5.64 6.33 8.28 6.66 11 7 C10.67 7.66 10.34 8.32 10 9 C7.67843403 9.40729228 5.3431213 9.74438677 3 10 C3 10.66 3 11.32 3 12 C4.32 12.33 5.64 12.66 7 13 C7 13.66 7 14.32 7 15 C5.68 15.33 4.36 15.66 3 16 C3 16.66 3 17.32 3 18 C4.134375 18.12375 5.26875 18.2475 6.4375 18.375 C7.613125 18.58125 8.78875 18.7875 10 19 C10.33 19.66 10.66 20.32 11 21 C8.69 21 6.38 21 4 21 C3.67 21.66 3.34 22.32 3 23 C4.65 23.33 6.3 23.66 8 24 C7.67 24.66 7.34 25.32 7 26 C4.9375 26.625 4.9375 26.625 3 27 C3 27.66 3 28.32 3 29 C5.31 29.33 7.62 29.66 10 30 C10 30.66 10 31.32 10 32 C7.69 32.33 5.38 32.66 3 33 C3 33.66 3 34.32 3 35 C3.639375 35.12375 4.27875 35.2475 4.9375 35.375 C5.9584375 35.684375 5.9584375 35.684375 7 36 C7.33 36.66 7.66 37.32 8 38 C6.35 38 4.7 38 3 38 C3 38.66 3 39.32 3 40 C5.64 40.33 8.28 40.66 11 41 C11 41.99 11 42.98 11 44 C8.36 44 5.72 44 3 44 C3 44.66 3 45.32 3 46 C4.32 46.33 5.64 46.66 7 47 C7 47.66 7 48.32 7 49 C5.02 49.495 5.02 49.495 3 50 C3 50.66 3 51.32 3 52 C5.64 52 8.28 52 11 52 C11 52.99 11 53.98 11 55 C8.36 55 5.72 55 3 55 C3 55.66 3 56.32 3 57 C4.65 57.33 6.3 57.66 8 58 C8 58.99 8 59.98 8 61 C6.35 61 4.7 61 3 61 C3 61.66 3 62.32 3 63 C5.31 63.33 7.62 63.66 10 64 C10 64.66 10 65.32 10 66 C6.535 66.495 6.535 66.495 3 67 C3 67.99 3 68.98 3 70 C8.28 70 13.56 70 19 70 C19 48.22 19 26.44 19 4 C13.72 4 8.44 4 3 4 Z " fill="#FFFFFF" transform="translate(2,1)"/>
<path d="M0 0 C2.63788036 2.63788036 1.47813624 9.71457006 1.5625 13.25 C1.62501953 14.39597656 1.68753906 15.54195312 1.75195312 16.72265625 C1.91103534 25.00457262 1.91103534 25.00457262 -0.67358398 27.82861328 C-2.73502636 29.12429488 -4.74484854 30.09065157 -7 31 C-7.77730469 31.46148437 -8.55460937 31.92296875 -9.35546875 32.3984375 C-9.96003906 32.72070312 -10.56460938 33.04296875 -11.1875 33.375 C-11.79980469 33.71273437 -12.41210938 34.05046875 -13.04296875 34.3984375 C-18.17396335 35.97562945 -23.27777133 32.6289239 -27.8125 30.4375 C-28.50537109 30.10814453 -29.19824219 29.77878906 -29.91210938 29.43945312 C-31.61044948 28.63127749 -33.30555769 27.81631623 -35 27 C-35.14489234 22.89620302 -35.23393542 18.79306033 -35.3125 14.6875 C-35.35439453 13.52025391 -35.39628906 12.35300781 -35.43945312 11.15039062 C-35.45556641 10.03212891 -35.47167969 8.91386719 -35.48828125 7.76171875 C-35.51446533 6.73006592 -35.54064941 5.69841309 -35.56762695 4.63549805 C-35 2 -35 2 -32.62133789 0.21289062 C-31.75629639 -0.18736328 -30.89125488 -0.58761719 -30 -1 C-28.79730469 -1.57814453 -28.79730469 -1.57814453 -27.5703125 -2.16796875 C-16.98482867 -6.5814053 -10.31470374 -4.55939803 0 0 Z M-28 2 C-23.31790991 5.12139339 -19.68048728 6.56804873 -14 6 C-11.56179103 5.14957631 -9.33544362 4.12101294 -7 3 C-7.87338344 0.70959137 -7.87338344 0.70959137 -10.6875 -0.125 C-17.43584743 -1.90758234 -21.73002931 -0.59447063 -28 2 Z M-31 5 C-31 9.29 -31 13.58 -31 18 C-29.39125 18.825 -27.7825 19.65 -26.125 20.5 C-24.76761719 21.19609375 -24.76761719 21.19609375 -23.3828125 21.90625 C-21.13403141 23.13905589 -21.13403141 23.13905589 -19 23 C-19 18.71 -19 14.42 -19 10 C-20.2375 9.360625 -21.475 8.72125 -22.75 8.0625 C-23.44609375 7.70285156 -24.1421875 7.34320313 -24.859375 6.97265625 C-27.24545543 5.81077044 -27.24545543 5.81077044 -31 5 Z M-5 5 C-5.020625 6.093125 -5.04125 7.18625 -5.0625 8.3125 C-6 12 -6 12 -7.625 13.1328125 C-9.5625 13.9375 -9.5625 13.9375 -13 15 C-13 13.02 -13 11.04 -13 9 C-13.66 9 -14.32 9 -15 9 C-15 13.62 -15 18.24 -15 23 C-10.64989137 21.54996379 -7.00891482 20.09990776 -3 18 C-3 13.71 -3 9.42 -3 5 C-3.66 5 -4.32 5 -5 5 Z M-10 7 C-9 10 -9 10 -9 10 Z M-31 22 C-30.31020584 25.19721777 -30.31020584 25.19721777 -27.49609375 26.38671875 C-26.48675781 26.81597656 -25.47742188 27.24523438 -24.4375 27.6875 C-23.42558594 28.12449219 -22.41367187 28.56148437 -21.37109375 29.01171875 C-20.58863281 29.33785156 -19.80617188 29.66398437 -19 30 C-19 29.01 -19 28.02 -19 27 C-20.62249941 26.16180842 -22.24808497 25.3295884 -23.875 24.5 C-24.77992187 24.0359375 -25.68484375 23.571875 -26.6171875 23.09375 C-28.86596859 21.86094411 -28.86596859 21.86094411 -31 22 Z M-10.125 24.5 C-11.03507812 24.9640625 -11.94515625 25.428125 -12.8828125 25.90625 C-13.58148438 26.2671875 -14.28015625 26.628125 -15 27 C-14.67 27.99 -14.34 28.98 -14 30 C-10.37 28.02 -6.74 26.04 -3 24 C-3 23.34 -3 22.68 -3 22 C-5.82440059 22 -7.6229276 23.21688595 -10.125 24.5 Z " fill="#FFFFFF" transform="translate(61,24)"/>
<path d="M0 0 C0 0.66 0 1.32 0 2 C1.98 2 3.96 2 6 2 C6 1.34 6 0.68 6 0 C9 -1 9 -1 11.04296875 -0.00390625 C11.75066406 0.47175781 12.45835938 0.94742188 13.1875 1.4375 C13.90292969 1.91058594 14.61835937 2.38367188 15.35546875 2.87109375 C15.89816406 3.24363281 16.44085938 3.61617188 17 4 C15.89210592 7.32368224 15.51563783 7.61563093 12.625 9.25 C12.01914062 9.60578125 11.41328125 9.9615625 10.7890625 10.328125 C9 11 9 11 6 10 C6 9.34 6 8.68 6 8 C4.02 8 2.04 8 0 8 C-0.33 8.99 -0.66 9.98 -1 11 C-4.91211733 9.84414715 -7.8745041 8.64465038 -11 6 C-9.89210592 2.67631776 -9.51563783 2.38436907 -6.625 0.75 C-6.01914062 0.39421875 -5.41328125 0.0384375 -4.7890625 -0.328125 C-3 -1 -3 -1 0 0 Z " fill="#FFFFFF" transform="translate(41,62)"/>
<path d="M0 0 C0 0.66 0 1.32 0 2 C1.98 2 3.96 2 6 2 C6 1.34 6 0.68 6 0 C10.81430721 -0.56638908 13.20307814 1.17438373 17 4 C15.90648447 7.17119503 14.9873012 8.00783543 12.0625 9.8125 C9 11 9 11 6 10 C6 9.34 6 8.68 6 8 C4.02 8 2.04 8 0 8 C-0.33 8.99 -0.66 9.98 -1 11 C-4.91211733 9.84414715 -7.8745041 8.64465038 -11 6 C-10 3 -10 3 -7.75 1.3125 C-4.8635748 -0.06511203 -3.14826764 -0.26985151 0 0 Z " fill="#FFFFFF" transform="translate(41,3)"/>
<path d="M0 0 C3 1 3 1 4.1875 2.75 C5.10819096 5.29960574 5.14948718 7.30923081 5 10 C4.34 10 3.68 10 3 10 C3 12.31 3 14.62 3 17 C3.66 17 4.32 17 5 17 C5.36923077 22.41538462 5.36923077 22.41538462 3.5 25.375 C2.7575 26.179375 2.7575 26.179375 2 27 C0.1875 26.8125 0.1875 26.8125 -2 26 C-4.53370588 22.65188866 -5 21.29875783 -5 17 C-4.01 17 -3.02 17 -2 17 C-1.67 14.69 -1.34 12.38 -1 10 C-2.32 10 -3.64 10 -5 10 C-4.49701212 5.59885603 -2.91227269 3.28804981 0 0 Z " fill="#FFFFFF" transform="translate(68,25)"/>
</svg>
