<?xml version="1.0" encoding="utf-8"?>
<!-- Generator: Adobe Illustrator 26.4.1, SVG Export Plug-In . SVG Version: 6.00 Build 0)  -->
<svg version="1.1" id="Point_to_Point" xmlns="http://www.w3.org/2000/svg" xmlns:xlink="http://www.w3.org/1999/xlink" x="0px"
	 y="0px" width="40px" height="40px" viewBox="0 0 40 40" enable-background="new 0 0 40 40" xml:space="preserve">
<rect width="100%" height="100" fill="#000"/>
<path fill="#FFFFFF" d="M30.15,4.77c-2.91,0-5.26,2.35-5.26,5.26c0,0.7,0.14,1.37,0.39,1.98L11.93,25.13
	c-0.63-0.27-1.33-0.42-2.07-0.42c-2.91,0-5.26,2.35-5.26,5.26s2.35,5.26,5.26,5.26s5.26-2.35,5.26-5.26c0-0.7-0.14-1.37-0.39-1.98
	l13.35-13.13c0.63,0.27,1.33,0.42,2.07,0.42c2.91,0,5.26-2.35,5.26-5.26S33.06,4.77,30.15,4.77z"/>
</svg>
