<?xml version="1.0" encoding="utf-8"?>
<!-- Generator: Adobe Illustrator 26.4.1, SVG Export Plug-In . SVG Version: 6.00 Build 0)  -->
<svg version="1.1" id="Multipoint_00000182489876995376915330000009242539081090602679_"
	 xmlns="http://www.w3.org/2000/svg" xmlns:xlink="http://www.w3.org/1999/xlink" x="0px" y="0px" width="40px" height="40px"
	 viewBox="0 0 40 40" enable-background="new 0 0 40 40" xml:space="preserve">
<rect width="100%" height="100" fill="#000"/>
<path fill="#FFFFFF" d="M31.01,5.79c-2.37,0-4.35,1.59-4.99,3.75l-7.24,0.77c-0.89-1.62-2.59-2.73-4.56-2.73
	c-2.89,0-5.23,2.34-5.23,5.23c0,1.59,0.72,2.99,1.84,3.95l-2.3,7.06c-2.66,0.24-4.76,2.45-4.76,5.18c0,2.89,2.34,5.23,5.23,5.23
	s5.23-2.34,5.23-5.23c0-1.6-0.74-3.02-1.87-3.98l2.29-7.02c2.18-0.17,3.97-1.67,4.57-3.7l7.24-0.77c0.89,1.62,2.59,2.73,4.56,2.73
	c2.89,0,5.23-2.34,5.23-5.23S33.89,5.79,31.01,5.79z"/>
</svg>
