<?xml version="1.0" encoding="utf-8"?>
<!-- Generator: Adobe Illustrator 26.4.1, SVG Export Plug-In . SVG Version: 6.00 Build 0)  -->
<svg version="1.1" id="Point_to_Point" xmlns="http://www.w3.org/2000/svg" xmlns:xlink="http://www.w3.org/1999/xlink" x="0px"
	 y="0px" width="40px" height="40px" viewBox="0 0 40 40" enable-background="new 0 0 40 40" xml:space="preserve">
<rect width="100%" height="100" fill="#000"/>
<g>
	<path fill="#FFFFFF" d="M28.08,14.86c0.63,0.27,1.33,0.42,2.07,0.42c2.91,0,5.26-2.35,5.26-5.26c0-2.91-2.35-5.25-5.26-5.25
		c-2.91,0-5.26,2.35-5.26,5.26c0,0.7,0.14,1.37,0.39,1.98L11.93,25.13c-0.63-0.27-1.33-0.42-2.07-0.42c-2.91,0-5.26,2.35-5.26,5.26
		c0,2.91,2.35,5.26,5.26,5.26c2.91,0,5.26-2.35,5.26-5.26c0-0.7-0.14-1.37-0.39-1.98L28.08,14.86z"/>
	<path fill="#FFFFFF" d="M7.5,20c0-6.89,5.61-12.5,12.5-12.5c0.42,0,0.83,0.02,1.23,0.06c0.39-1.41,1.1-2.68,2.06-3.73
		C22.23,3.61,21.13,3.5,20,3.5C10.9,3.5,3.5,10.9,3.5,20c0,1.02,0.11,2.02,0.29,3c1.07-0.93,2.35-1.62,3.77-1.98
		C7.52,20.68,7.5,20.34,7.5,20z"/>
	<path fill="#FFFFFF" d="M36.21,17c-1.07,0.93-2.35,1.61-3.77,1.98c0.03,0.34,0.05,0.68,0.05,1.02c0,6.89-5.61,12.5-12.5,12.5
		c-0.41,0-0.82-0.02-1.22-0.06c-0.39,1.41-1.1,2.68-2.06,3.73c1.06,0.22,2.16,0.33,3.28,0.33c9.1,0,16.5-7.4,16.5-16.5
		C36.5,18.98,36.39,17.98,36.21,17z"/>
</g>
</svg>
