<?xml version="1.0" encoding="utf-8"?>
<!-- Generator: Adobe Illustrator 26.4.1, SVG Export Plug-In . SVG Version: 6.00 Build 0)  -->
<svg version="1.1" id="Angle_00000115484435355630136690000001246744944972410553_"
	 xmlns="http://www.w3.org/2000/svg" xmlns:xlink="http://www.w3.org/1999/xlink" x="0px" y="0px" width="40px" height="40px"
	 viewBox="0 0 40 40" enable-background="new 0 0 40 40" xml:space="preserve">
<path fill="#FFFFFF" d="M33.52,30.66L22.58,24.9c0.55-1.48,1.21-3.61,1.21-5.4c0-1.74-0.6-3.73-1.12-5.15l10.76-4.96
	c1-0.46,1.44-1.65,0.98-2.65c-0.46-1-1.65-1.44-2.65-0.98L6.57,17.36c-0.69,0.32-1.14,1-1.16,1.76c-0.02,0.76,0.39,1.47,1.07,1.82
	L31.66,34.2c0.3,0.16,0.62,0.23,0.93,0.23c0.72,0,1.41-0.39,1.77-1.07C34.87,32.38,34.5,31.17,33.52,30.66z M20.84,15.19
	c0.45,1.25,0.94,2.92,0.94,4.31c0,1.4-0.52,3.15-0.99,4.46l-8.86-4.66L20.84,15.19z"/>
</svg>
