<?xml version="1.0" encoding="utf-8"?>
<!-- Generator: Adobe Illustrator 26.4.1, SVG Export Plug-In . SVG Version: 6.00 Build 0)  -->
<svg version="1.1" id="Area" xmlns="http://www.w3.org/2000/svg" xmlns:xlink="http://www.w3.org/1999/xlink" x="0px" y="0px"
	 width="40px" height="40px" viewBox="0 0 40 40" enable-background="new 0 0 40 40" xml:space="preserve">
<path fill="#FFFFFF" d="M32.67,26.63V13.37c1.88-0.64,3.25-2.41,3.25-4.52c0-2.64-2.13-4.79-4.75-4.79c-2.1,0-3.86,1.38-4.49,3.29
	l-13.29,0C12.76,5.47,10.98,4.1,8.87,4.1c-2.64,0-4.79,2.13-4.79,4.75c0,2.1,1.38,3.86,3.29,4.49v13.32
	c-1.91,0.63-3.29,2.39-3.29,4.49c0,2.62,2.14,4.75,4.79,4.75c2.11,0,3.89-1.37,4.52-3.25h13.29c0.63,1.91,2.39,3.29,4.49,3.29
	c2.62,0,4.75-2.14,4.75-4.79C35.92,29.04,34.55,27.26,32.67,26.63z M13.39,10.35l4.96,0l-7.99,7.99v-5
	C11.8,12.87,12.91,11.76,13.39,10.35z M11.44,27.17c-0.33-0.21-0.69-0.38-1.07-0.51v-5.5l10.81-10.81l5.5,0
	c0.13,0.38,0.3,0.74,0.51,1.07L11.44,27.17z M29.67,26.63c-1.41,0.48-2.52,1.59-2.99,3.02h-5l7.99-7.99V26.63z M29.67,18.83
	L18.85,29.65h-5.46c-0.13-0.39-0.31-0.74-0.53-1.08l15.73-15.73c0.33,0.22,0.69,0.4,1.08,0.53V18.83z"/>
</svg>
