<?xml version="1.0" encoding="utf-8"?>
<!-- Generator: Adobe Illustrator 26.4.1, SVG Export Plug-In . SVG Version: 6.00 Build 0)  -->
<svg version="1.1" id="Layer_2_00000038375558753408762560000012783501313460242064_"
	 xmlns="http://www.w3.org/2000/svg" xmlns:xlink="http://www.w3.org/1999/xlink" x="0px" y="0px" width="24px" height="24px"
	 viewBox="0 0 24 24" enable-background="new 0 0 24 24" xml:space="preserve">
<g id="Layer_1-2">
	<rect id="frame" fill="none" width="24" height="24"/>
	<path id="measureTool" fill="#FFFFFF" d="M21,12h-7v-2c0-1.66-2.69-3-6-3s-6,1.34-6,3v5c0,2,3,3,5,3h1h2.25v-3.75
		c0-0.41,0.34-0.75,0.75-0.75s0.75,0.34,0.75,0.75V18h2.5v-3.75c0-0.41,0.34-0.75,0.75-0.75s0.75,0.34,0.75,0.75V18h2.5v-3.75
		c0-0.41,0.34-0.75,0.75-0.75s0.75,0.34,0.75,0.75V18H21c0.55,0,1-0.45,1-1v-4C22,12.45,21.55,12,21,12z M8,11.5
		c-1.93,0-3.5-0.67-3.5-1.5S6.07,8.5,8,8.5s3.5,0.67,3.5,1.5S9.93,11.5,8,11.5z"/>
</g>
</svg>
