<?xml version="1.0" encoding="utf-8"?>
<!-- Generator: Adobe Illustrator 26.4.1, SVG Export Plug-In . SVG Version: 6.00 Build 0)  -->
<svg version="1.1" xmlns="http://www.w3.org/2000/svg" xmlns:xlink="http://www.w3.org/1999/xlink" x="0px" y="0px" width="32px"
	 height="32px" viewBox="0 0 32 32" enable-background="new 0 0 32 32" xml:space="preserve">
<g id="Layer_1">
</g>
<g id="Layer_2">
	<g>
		<path fill="#FFFFFF" d="M21.74,7.96V7.6c0-1.99-1.62-3.6-3.6-3.6h-4.32c-1.99,0-3.6,1.62-3.6,3.6v0.36H5.55v2.88h1.48V24.4
			c0,1.99,1.62,3.6,3.6,3.6h10.7c1.99,0,3.6-1.62,3.6-3.6V10.85h1.51V7.96H21.74z M13.09,7.6c0-0.4,0.32-0.72,0.72-0.72h4.32
			c0.4,0,0.72,0.32,0.72,0.72v0.36h-5.77V7.6z M22.05,24.4c0,0.4-0.32,0.72-0.72,0.72h-10.7c-0.4,0-0.72-0.32-0.72-0.72V10.85h12.14
			V24.4z"/>
		<rect x="14.89" y="13.14" fill="#FFFFFF" width="2.16" height="9.73"/>
		<rect x="18.49" y="13.14" fill="#FFFFFF" width="2.16" height="9.73"/>
		<rect x="11.29" y="13.14" fill="#FFFFFF" width="2.16" height="9.73"/>
	</g>
</g>
</svg>
