<svg id="markup_unlocked_dark" xmlns="http://www.w3.org/2000/svg" width="40" height="40" viewBox="0 0 40 40">
  <rect id="iconBase" width="40" height="40" fill="none"/>
  <rect id="BaseIcon" width="28" height="28" transform="translate(5 4)" fill="none"/>
  <path id="Unlock" d="M164.756,95l.3.031.3.068.263.133.2.164.2.267.13.233.034.3.034.267v8.955l-.034.3-.034.3-.13.229-.2.232-.2.2-.263.1-.3.1-.3.031H150.129l-.332-.031-.233-.1-.3-.1-.2-.2-.2-.232-.133-.229-.065-.3-.034-.3V96.457l.034-.267.065-.3.133-.233.2-.267.2-.164.3-.133.233-.068.332-.031h.462V90.019l.034-.694.1-.7.133-.663.233-.6.3-.595.332-.564.4-.564.465-.53.53-.5.564-.4.564-.332.564-.3.595-.2.663-.2.663-.1.732-.034.694.034.633.1.663.2.595.2.6.3.564.332.53.4.53.5.5.53.4.564.332.564.3.595.2.6.164.663.1.7.034.694-.034.2-.031.164-.1.168-.133.164-.133.1-.168.1-.2.068-.164.031h-.995l-.168-.031-.2-.068-.168-.1-.164-.1-.1-.164-.1-.168-.068-.164-.031-.2v-.4l-.068-.4-.1-.366-.133-.366-.13-.332-.2-.332-.233-.332-.263-.263-.3-.3-.332-.232-.3-.2-.366-.164-.332-.1-.362-.1-.4-.065-.362-.034-.4.034-.4.065-.366.1-.366.1-.332.164-.3.2-.332.232-.3.3-.267.263-.232.332-.2.332-.168.332-.13.366-.068.366-.065.4V95h11.211Z" transform="translate(-137.635 -76.054)" fill="#ffffff" fill-rule="evenodd"/>
  <rect id="BaseIcon-2" data-name="BaseIcon" width="28" height="28" transform="translate(5 4)" fill="none"/>
</svg>
