<?xml version="1.0" encoding="UTF-8" standalone="no"?>
<svg
   id="visibility_on"
   width="18"
   height="18"
   viewBox="0 0 18 18"
   version="1.1"
   sodipodi:docname="visibility_on.svg"
   inkscape:version="1.2 (dc2aedaf03, 2022-05-15)"
   xmlns:inkscape="http://www.inkscape.org/namespaces/inkscape"
   xmlns:sodipodi="http://sodipodi.sourceforge.net/DTD/sodipodi-0.dtd"
   xmlns="http://www.w3.org/2000/svg"
   xmlns:svg="http://www.w3.org/2000/svg">
  <defs
     id="defs7" />
  <sodipodi:namedview
     id="namedview5"
     pagecolor="#ffffff"
     bordercolor="#000000"
     borderopacity="0.25"
     inkscape:showpageshadow="2"
     inkscape:pageopacity="0.0"
     inkscape:pagecheckerboard="0"
     inkscape:deskcolor="#d1d1d1"
     showgrid="false"
     inkscape:zoom="57.055556"
     inkscape:cx="9.0175268"
     inkscape:cy="8.9912366"
     inkscape:window-width="2560"
     inkscape:window-height="1377"
     inkscape:window-x="-8"
     inkscape:window-y="-8"
     inkscape:window-maximized="1"
     inkscape:current-layer="Visibility_on" />
  <rect
     id="iconBase"
     width="18"
     height="18"
     fill="none" />
  <path
     id="visible_on"
     d="m 15.856,8.998 -0.348,-0.5 -0.37,-0.5 L 14.73,7.57 14.324,7.144 13.896,6.756 13.43,6.406 12.966,6.096 12.46,5.806 l 0.136,0.232 0.1,0.252 0.1,0.252 0.078,0.252 0.058,0.252 0.04,0.254 0.018,0.27 v 0.292 l -0.018,0.388 -0.04,0.408 -0.1,0.388 -0.136,0.368 -0.156,0.35 -0.212,0.33 -0.234,0.33 -0.272,0.29 -0.29,0.292 -0.31,0.232 -0.33,0.214 -0.35,0.154 -0.371,0.123 -0.37,0.116 -0.406,0.04 -0.408,0.02 L 8.599,11.885 8.211,11.845 7.828,11.729 7.458,11.593 7.11,11.439 6.78,11.225 6.47,10.993 6.178,10.701 5.906,10.411 5.654,10.081 5.46,9.751 5.306,9.401 5.17,9.033 5.07,8.645 5.012,8.237 4.992,7.849 V 7.557 L 5.032,7.287 5.07,7.033 5.128,6.781 5.206,6.529 5.306,6.277 5.406,6.025 5.542,5.793 5.042,6.083 4.576,6.393 4.11,6.743 3.664,7.131 3.276,7.557 2.868,7.985 2.5,8.485 l -0.35,0.5 0.292,0.466 0.33,0.428 0.348,0.388 0.37,0.388 0.388,0.368 0.388,0.33 0.406,0.31 0.448,0.292 0.464,0.252 0.448,0.232 0.484,0.174 0.466,0.176 0.5,0.1 0.5,0.1 0.506,0.058 0.5,0.02 0.524,-0.02 0.5,-0.058 0.5,-0.1 0.486,-0.1 0.484,-0.176 0.466,-0.174 0.466,-0.232 0.466,-0.252 0.426,-0.292 0.428,-0.31 0.388,-0.33 0.388,-0.368 0.368,-0.388 0.35,-0.388 0.33,-0.428 z M 9.301,5.838 9.359,5.76 9.399,5.682 9.417,5.606 V 5.429 L 9.399,5.351 9.359,5.275 9.301,5.217 9.243,5.157 9.165,5.119 9.087,5.099 8.987,5.081 8.715,5.099 8.463,5.139 8.211,5.217 7.959,5.275 7.725,5.411 7.493,5.545 7.299,5.701 7.065,5.895 6.891,6.109 6.717,6.323 6.601,6.555 6.483,6.787 6.383,7.039 6.305,7.293 6.285,7.563 v 0.35 l 0.02,0.1 0.038,0.076 0.06,0.078 0.058,0.058 0.078,0.02 0.1,0.02 0.058,0.018 0.1,-0.018 0.076,-0.02 0.078,-0.02 0.058,-0.058 0.058,-0.078 0.04,-0.076 0.02,-0.1 0.018,-0.058 V 7.641 L 7.185,7.467 7.223,7.293 7.281,7.117 7.339,6.943 7.439,6.807 7.555,6.651 7.671,6.517 7.827,6.381 7.981,6.263 8.117,6.187 8.293,6.087 8.447,6.029 8.641,5.991 8.817,5.951 h 0.174 l 0.1,-0.02 0.078,-0.018 0.078,-0.02 z m 7.524,2.541 0.078,0.174 0.058,0.136 0.02,0.174 0.02,0.136 -0.02,0.176 -0.02,0.136 -0.058,0.174 -0.078,0.136 -0.33,0.524 -0.348,0.466 -0.388,0.464 -0.408,0.446 -0.426,0.39 -0.466,0.388 -0.506,0.348 -0.5,0.33 -0.524,0.292 -0.542,0.27 -0.544,0.194 -0.544,0.176 -0.582,0.154 -0.562,0.1 -0.562,0.058 H 8.41 L 7.846,14.163 7.284,14.063 6.702,13.909 6.159,13.729 5.617,13.517 5.073,13.245 4.549,12.953 4.025,12.623 3.541,12.275 3.075,11.907 2.649,11.517 2.241,11.071 1.853,10.607 1.503,10.141 1.173,9.617 1.095,9.481 1.037,9.307 0.999,9.171 V 8.859 L 1.037,8.685 1.095,8.549 1.173,8.375 1.503,7.875 1.853,7.389 2.241,6.923 2.649,6.517 3.075,6.109 3.541,5.721 4.025,5.371 4.549,5.041 5.073,4.751 5.617,4.499 6.159,4.265 6.703,4.091 7.285,3.955 7.847,3.855 8.411,3.797 8.993,3.779 l 0.6,0.018 0.562,0.058 0.562,0.1 0.582,0.136 0.544,0.174 0.544,0.234 0.542,0.252 0.524,0.29 0.5,0.33 0.506,0.35 0.466,0.388 0.426,0.408 0.408,0.406 0.388,0.466 0.348,0.486 z"
     fill="#ffffff"
     fill-rule="evenodd" />
</svg>
