<?xml version="1.0" encoding="UTF-8" standalone="no"?>
<svg
   id="visibility_off"
   width="18"
   height="18"
   viewBox="0 0 18 18"
   version="1.1"
   sodipodi:docname="visibility_off.svg"
   inkscape:version="1.2 (dc2aedaf03, 2022-05-15)"
   xmlns:inkscape="http://www.inkscape.org/namespaces/inkscape"
   xmlns:sodipodi="http://sodipodi.sourceforge.net/DTD/sodipodi-0.dtd"
   xmlns="http://www.w3.org/2000/svg"
   xmlns:svg="http://www.w3.org/2000/svg">
  <defs
     id="defs123" />
  <sodipodi:namedview
     id="namedview121"
     pagecolor="#ffffff"
     bordercolor="#000000"
     borderopacity="0.25"
     inkscape:showpageshadow="2"
     inkscape:pageopacity="0.0"
     inkscape:pagecheckerboard="0"
     inkscape:deskcolor="#d1d1d1"
     showgrid="false"
     inkscape:zoom="57.055556"
     inkscape:cx="9.0175268"
     inkscape:cy="8.9912366"
     inkscape:window-width="2560"
     inkscape:window-height="1377"
     inkscape:window-x="-8"
     inkscape:window-y="-8"
     inkscape:window-maximized="1"
     inkscape:current-layer="Visibility_off" />
  <rect
     id="iconBase"
     width="18"
     height="18"
     fill="none" />
  <path
     id="visible_off"
     d="m 5.9425,12.393 0.7,-1.282 -0.176,-0.136 -0.194,-0.174 -0.154,-0.154 -0.156,-0.176 -0.136,-0.174 -0.154,-0.214 -0.118,-0.194 -0.116,-0.232 -0.1,-0.214 -0.1,-0.214 -0.058,-0.232 -0.078,-0.214 -0.038,-0.232 -0.04,-0.234 -0.018,-0.252 -0.02,-0.232 0.02,-0.272 0.018,-0.272 0.04,-0.272 0.078,-0.252 0.076,-0.252 0.078,-0.232 0.116,-0.272 0.136,-0.234 -0.524,0.292 -0.484,0.31 -0.446,0.35 -0.428,0.388 -0.426,0.426 -0.368,0.446 -0.388,0.486 -0.35,0.5 0.388,0.582 0.408,0.524 0.446,0.486 0.466,0.426 0.484,0.428 0.524,0.348 0.524,0.33 z m 3.357,-6.575 0.058,-0.078 0.038,-0.078 0.02,-0.058 0.02,-0.1 -0.02,-0.1 L 9.3955,5.326 9.3575,5.268 9.2995,5.19 9.2415,5.132 9.1815,5.094 9.0815,5.074 9.0035,5.056 8.7315,5.074 8.4615,5.114 8.2075,5.19 7.9555,5.268 7.7235,5.384 7.5095,5.52 7.2775,5.676 7.0835,5.89 6.8895,6.084 6.7335,6.316 6.5795,6.53 l -0.1,0.232 -0.1,0.252 -0.058,0.272 -0.038,0.272 -0.02,0.272 0.02,0.078 0.02,0.076 0.038,0.078 0.058,0.078 0.078,0.058 0.058,0.04 0.078,0.018 0.1,0.02 0.078,-0.02 0.078,-0.018 0.078,-0.04 0.058,-0.058 0.058,-0.078 0.038,-0.078 0.04,-0.076 V 7.83 l 0.02,-0.194 0.018,-0.194 0.04,-0.156 0.058,-0.194 0.078,-0.154 0.1,-0.156 0.1,-0.136 0.134,-0.156 0.136,-0.134 0.156,-0.1 0.156,-0.1 0.154,-0.1 0.176,-0.058 0.174,-0.02 0.174,-0.038 h 0.194 l 0.078,-0.02 0.1,-0.02 0.06,-0.038 z m 3.375,-2.037 v 0.04 l -0.02,0.038 -0.116,0.214 -0.116,0.252 -0.156,0.232 -0.116,0.252 -0.176,0.272 -0.134,0.292 -0.176,0.29 -0.174,0.33 -0.174,0.33 -0.194,0.33 -0.194,0.35 -0.194,0.368 -0.214,0.388 -0.214,0.408 -0.232,0.406 -0.214,0.408 -0.252,0.428 -0.214,0.406 -0.214,0.408 -0.212,0.388 -0.194,0.368 -0.214,0.33 -0.174,0.35 -0.176,0.33 -0.174,0.33 -0.156,0.29 -0.174,0.292 -0.154,0.272 -0.136,0.252 -0.156,0.252 -0.116,0.252 -0.116,0.214 -0.446,0.814 -0.04,0.04 -0.058,0.058 -0.078,0.018 -0.078,0.02 -0.038,-0.02 -0.078,-0.018 -0.1,-0.058 -0.136,-0.058 -0.156,-0.1 -0.214,-0.116 -0.212,-0.116 -0.252,-0.156 -0.078,-0.058 -0.04,-0.058 -0.018,-0.058 -0.02,-0.078 0.02,-0.04 0.018,-0.058 0.02,-0.076 0.058,-0.078 0.058,-0.1 0.058,-0.136 0.078,-0.136 0.1,-0.174 -0.622,-0.31 -0.6,-0.368 -0.6,-0.408 -0.272,-0.234 -0.272,-0.232 -0.5,-0.524 -0.5,-0.524 -0.446,-0.582 -0.388,-0.6 -0.1,-0.154 -0.058,-0.136 -0.038,-0.174 v -0.33 l 0.038,-0.176 0.058,-0.136 0.1,-0.154 0.348,-0.524 0.35,-0.486 0.406,-0.466 0.408,-0.426 0.446,-0.408 0.446,-0.388 0.486,-0.33 0.486,-0.33 0.522,-0.31 0.506,-0.232 0.562,-0.214 0.544,-0.174 0.542,-0.116 0.582,-0.118 0.582,-0.058 0.6,-0.018 0.388,0.018 0.408,0.02 0.408,0.058 0.388,0.058 0.5,-0.892 0.038,-0.04 0.058,-0.038 0.06,-0.038 h 0.154 l 0.1,0.038 0.116,0.058 0.154,0.078 0.292,0.174 0.292,0.156 0.058,0.058 0.058,0.02 0.038,0.038 h 0.02 l 0.058,0.058 0.038,0.058 0.02,0.058 z m 0.33,4.054 -0.02,0.31 -0.038,0.292 -0.06,0.31 -0.058,0.29 -0.1,0.292 -0.136,0.272 -0.136,0.27 -0.174,0.254 -0.176,0.252 -0.194,0.252 -0.212,0.194 -0.214,0.194 -0.272,0.194 -0.232,0.136 -0.272,0.154 -0.292,0.136 2.5,-4.576 0.038,0.212 0.02,0.194 z m 3.841,0.524 0.058,0.154 0.058,0.156 0.038,0.174 v 0.312 l -0.038,0.154 -0.058,0.156 -0.058,0.154 -0.214,0.312 -0.214,0.31 -0.272,0.348 -0.29,0.35 -0.33,0.368 -0.368,0.35 -0.37,0.35 -0.368,0.31 -0.408,0.31 -0.408,0.252 -0.406,0.252 -0.446,0.214 -0.448,0.214 -0.446,0.174 -0.466,0.156 -0.464,0.116 -0.466,0.1 -0.486,0.058 -0.466,0.06 h -0.5 l 0.66,-1.2 0.466,-0.038 0.446,-0.1 0.466,-0.116 0.446,-0.136 0.426,-0.174 0.428,-0.194 0.426,-0.234 0.408,-0.252 0.368,-0.272 0.388,-0.29 0.37,-0.33 0.348,-0.33 0.33,-0.368 0.31,-0.37 0.292,-0.406 0.272,-0.428 -0.272,-0.368 -0.272,-0.388 -0.29,-0.368 -0.312,-0.33 -0.31,-0.33 -0.348,-0.312 -0.35,-0.29 -0.368,-0.272 0.562,-1.008 0.426,0.31 0.428,0.33 0.408,0.368 0.368,0.368 0.388,0.408 0.33,0.428 0.31,0.426 z"
     fill="#ffffff"
     fill-rule="evenodd" />
</svg>
